<svg width="100" height="25" viewBox="0 0 100 25" fill="none" xmlns="http://www.w3.org/2000/svg">
<g clip-path="url(#clip0_0_12)">
<path d="M19.6706 14.2191C20.4175 15.2486 20.7815 16.5112 20.7815 18.007C20.7815 20.1243 20.0153 21.756 18.4639 22.9021C16.9125 24.0481 14.6715 24.6115 11.7219 24.6115H0V0.407898H11.0707C13.8479 0.407898 15.9548 0.971224 17.4296 2.09787C18.9044 3.22453 19.6514 4.7591 19.6514 6.68218C19.6514 7.84768 19.3833 8.89663 18.847 9.82903C18.3107 10.742 17.5637 11.4802 16.6252 12.0046C17.9276 12.4514 18.9427 13.1701 19.6706 14.1997V14.2191ZM5.20973 10.3341H10.4195C11.7219 10.3341 12.6987 10.101 13.3691 9.61536C14.0395 9.12973 14.3651 8.41101 14.3651 7.47861C14.3651 6.5462 14.0203 5.82748 13.3691 5.36128C12.6987 4.89508 11.7219 4.66198 10.4195 4.66198H5.20973V10.3535V10.3341ZM14.4417 19.6581C15.1504 19.1725 15.4951 18.4343 15.4951 17.4048C15.4951 15.404 14.0969 14.3939 11.3005 14.3939H5.20973V20.3768H11.3005C12.6796 20.3768 13.733 20.1437 14.4417 19.6581Z" fill="white"/>
<path d="M28.979 0.407898V24.5726H23.731V0.407898H28.979Z" fill="white"/>
<path d="M35.6063 24.223C33.94 23.6985 32.5992 23.0381 31.5649 22.2028L33.3271 17.9876C34.3039 18.7451 35.4531 19.3667 36.7938 19.8135C38.1346 20.2797 39.4562 20.5128 40.7777 20.5128C42.2717 20.5128 43.3826 20.2797 44.0913 19.8135C44.8 19.3473 45.1639 18.7063 45.1639 17.9293C45.1639 17.3465 44.9532 16.8803 44.5318 16.4918C44.1104 16.1033 43.5741 15.812 42.9229 15.5789C42.2717 15.3458 41.3715 15.0932 40.2414 14.8213C38.5176 14.3745 37.1003 13.9472 36.0277 13.5004C34.9359 13.0536 33.9974 12.3543 33.193 11.4025C32.3885 10.4312 32.0055 9.14919 32.0055 7.53691C32.0055 6.13831 32.3694 4.85626 33.0781 3.7296C33.7867 2.58353 34.8593 1.68998 36.2958 1.0101C37.7323 0.330225 39.4753 0 41.5439 0C42.9995 0 44.4169 0.174825 45.7768 0.543901C47.1558 0.912976 48.3625 1.43745 49.3968 2.13675L47.7879 6.39083C45.7002 5.12821 43.5933 4.48718 41.4864 4.48718C40.0116 4.48718 38.9199 4.73971 38.2303 5.24476C37.5408 5.74981 37.196 6.41026 37.196 7.24553C37.196 8.08081 37.5983 8.68298 38.4027 9.09091C39.2072 9.49883 40.433 9.88733 42.0993 10.2758C43.8231 10.7226 45.2405 11.15 46.3322 11.5967C47.424 12.0435 48.3816 12.7234 49.1669 13.6752C49.9522 14.627 50.3544 15.8897 50.3544 17.5019C50.3544 18.8811 49.9905 20.1437 49.2627 21.2898C48.5349 22.4359 47.4431 23.3294 46.0066 24.0093C44.5701 24.6698 42.808 25.0194 40.7203 25.0194C38.9582 25.0194 37.2344 24.7669 35.568 24.2424L35.6063 24.223Z" fill="white"/>
<path d="M57.5367 23.3877C55.6597 22.2999 54.1849 20.8236 53.1123 18.92C52.0397 17.0163 51.5034 14.8796 51.5034 12.5097C51.5034 10.1399 52.0397 8.00311 53.1123 6.09946C54.1849 4.1958 55.6597 2.70008 57.5367 1.6317C59.4138 0.563326 61.5398 0 63.8957 0C66.2516 0 68.3393 0.5439 70.2355 1.6317C72.1125 2.7195 73.6065 4.1958 74.6791 6.09946C75.7516 8.00311 76.2879 10.1399 76.2879 12.5097C76.2879 14.8796 75.7516 17.0163 74.6791 18.92C73.6065 20.8236 72.1125 22.3193 70.2355 23.3877C68.3584 24.4755 66.2324 25.0194 63.8957 25.0194C61.559 25.0194 59.4138 24.4755 57.5367 23.3877ZM67.5348 19.2502C68.6074 18.5897 69.4502 17.6768 70.0631 16.5113C70.676 15.3458 70.9824 14.0054 70.9824 12.5097C70.9824 11.014 70.676 9.67366 70.0631 8.50816C69.4502 7.34266 68.6074 6.41026 67.5348 5.76923C66.4622 5.12821 65.2556 4.77855 63.9148 4.77855C62.5741 4.77855 61.3674 5.10878 60.2948 5.76923C59.2222 6.42968 58.3795 7.34266 57.7666 8.50816C57.1537 9.67366 56.8472 11.014 56.8472 12.5097C56.8472 14.0054 57.1537 15.3458 57.7666 16.5113C58.3795 17.6768 59.2222 18.6092 60.2948 19.2502C61.3674 19.8912 62.5741 20.2409 63.9148 20.2409C65.2556 20.2409 66.4622 19.9106 67.5348 19.2502Z" fill="white"/>
<path d="M100 24.592H95.6714L84.4092 9.90673V24.592H79.2378V0.407898H83.5665L94.8287 15.0932V0.407898H100V24.5726V24.592Z" fill="white"/>
</g>
<defs>
<clipPath id="clip0_0_12">
<rect width="100" height="25" fill="white"/>
</clipPath>
</defs>
</svg>
